<svg width="607" height="604" viewBox="0 0 607 604" fill="none" xmlns="http://www.w3.org/2000/svg">
  <path fill-rule="evenodd" clip-rule="evenodd" d="M303.948 48.3138C371.52 35.6565 438.746 -21.1646 501.187 8.4345C563.821 38.1248 587.878 119.552 601.707 189.46C614.516 254.212 602.537 321.335 574.866 380.892C549.741 434.97 500.423 467.847 455.038 505.144C407.265 544.404 364.822 599.838 303.948 603.533C242.061 607.29 189.613 562.005 139.424 524.302C89.1861 486.563 39.3996 446.12 15.4507 386.81C-9.81275 324.245 -0.0403709 237.763 26.9999 176C53.1757 116.211 94.7591 100.767 152.511 73.7473C200.287 51.3953 252.364 57.9764 303.948 48.3138Z" fill="url(#paint0_linear)"/>
  <defs>
    <linearGradient id="paint0_linear" x1="-11" y1="301.876" x2="606.84" y2="301.876" gradientUnits="userSpaceOnUse">
      <stop offset="0.0520833" stop-color="#F3164A"/>
      <stop offset="0.625" stop-color="#870000"/>
      <stop offset="1" stop-color="#190A05"/>
    </linearGradient>
  </defs>
</svg>
